<svg version="1.0" xmlns="http://www.w3.org/2000/svg" width="588.000000ptpx" height="846.000000ptpx" viewBox="0 0 588.000000 846.000000" preserveAspectRatio="xMidYMid meet" transform="rotate(0) scale(1, 1)">

<g transform="translate(0.000000,846.000000) scale(0.100000,-0.100000)" fill="#7c275c" stroke="none">
<path d="M2526 8408 c-3 -13 -7 -44 -10 -71 -7 -59 -38 -121 -73 -144 -29 -19&#10;-86 -22 -145 -9 l-38 8 -1 -38 c-1 -102 -52 -154 -150 -154 l-59 0 0 -45 c0&#10;-89 -48 -145 -132 -153 -40 -4 -48 -8 -43 -21 14 -35 16 -117 3 -141 -19 -35&#10;-72 -68 -124 -76 -24 -3 -44 -7 -44 -8 0 0 11 -23 25 -50 16 -31 25 -66 25&#10;-94 0 -41 -5 -50 -45 -89 l-45 -43 30 -41 c25 -35 30 -51 30 -99 0 -64 -26&#10;-113 -87 -164 l-34 -29 55 -53 c50 -47 56 -57 56 -94 0 -49 -17 -83 -76 -159&#10;-46 -58 -54 -81 -30 -81 37 0 174 -52 204 -77 36 -30 38 -42 27 -119 -7 -51&#10;-7 -51 30 -72 20 -12 40 -20 44 -18 4 3 8 22 9 43 2 21 7 55 13 77 21 77 -13&#10;150 -81 171 -21 7 -27 39 -10 50 6 3 10 17 10 31 0 19 -7 28 -30 35 -16 6 -30&#10;13 -30 16 0 2 26 40 57 83 57 79 58 79 94 74 35 -6 39 -4 55 27 18 32 22 80&#10;23 236 0 34 6 45 31 65 l32 25 -16 38 c-35 84 -15 136 67 170 20 8 37 16 37&#10;18 0 1 -7 24 -15 51 -35 114 -9 156 93 156 42 0 64 4 66 13 2 6 9 31 15 55 16&#10;58 39 65 113 35 68 -27 95 -29 146 -7 l37 15 -30 27 c-17 15 -44 37 -60 50&#10;-30 22 -30 22 -10 37 11 9 34 15 50 13 28 -3 30 -6 27 -38 -2 -31 2 -38 35&#10;-58 21 -13 53 -33 70 -46 l33 -24 -108 -3 c-94 -4 -112 -7 -152 -31 -77 -45&#10;-155 -144 -216 -275 -100 -214 -97 -209 -188 -291 -42 -38 -44 -49 -31 -177&#10;l7 -71 -55 -26 c-30 -15 -69 -44 -87 -64 -31 -36 -32 -40 -27 -101 4 -51 13&#10;-76 47 -133 46 -76 45 -66 24 -212 -5 -37 -2 -59 15 -99 29 -66 25 -103 -10&#10;-107 -38 -4 -84 17 -228 107 -155 96 -249 148 -318 175 -48 19 -60 31 -133&#10;131 -193 263 -329 492 -355 592 -8 32 -24 122 -35 199 -21 151 -46 226 -93&#10;287 -32 41 -48 44 -118 23 l-47 -14 -52 39 c-61 45 -93 49 -139 15 -25 -18&#10;-41 -23 -69 -19 -65 8 -140 -61 -162 -151 -19 -74 -27 -84 -67 -92 -81 -14&#10;-123 -53 -123 -112 0 -53 34 -104 122 -189 45 -43 118 -112 161 -153 43 -41&#10;85 -87 93 -102 8 -15 39 -105 70 -200 58 -179 137 -385 178 -466 28 -55 65&#10;-107 202 -283 135 -174 148 -201 141 -293 -3 -39 -19 -111 -36 -160 -39 -114&#10;-54 -195 -45 -252 10 -72 79 -139 206 -202 190 -94 541 -196 786 -226 135 -17&#10;165 -31 187 -82 7 -18 27 -40 43 -48 55 -28 51 -55 -22 -151 -25 -33 -53 -80&#10;-62 -105 -40 -110 -75 -172 -133 -234 -68 -73 -81 -98 -81 -157 0 -59 22 -101&#10;78 -148 61 -51 77 -86 68 -144 -8 -50 -162 -671 -252 -1017 -35 -135 -85 -337&#10;-111 -450 -41 -181 -46 -219 -47 -325 0 -145 6 -163 96 -261 81 -88 87 -114&#10;59 -234 -12 -47 -21 -112 -21 -146 0 -54 3 -63 30 -89 28 -27 37 -29 123 -33&#10;87 -4 98 -2 164 26 136 61 197 54 231 -26 11 -26 25 -63 30 -82 6 -19 38 -123&#10;72 -230 45 -144 62 -211 62 -256 1 -57 -2 -66 -45 -131 -31 -45 -51 -89 -59&#10;-125 -10 -49 -9 -59 8 -89 26 -44 149 -139 241 -185 63 -32 78 -36 120 -31 26&#10;4 80 8 119 10 60 2 77 7 109 31 96 74 105 126 95 586 -8 407 -6 430 47 430 15&#10;0 42 -9 59 -19 64 -39 108 -119 184 -336 23 -66 53 -140 65 -165 13 -25 26&#10;-66 30 -92 15 -97 109 -217 213 -273 77 -41 97 -43 209 -21 110 21 152 44 207&#10;113 108 135 98 256 -35 430 -27 35 -54 74 -61 86 -14 26 -17 183 -5 312 l9 90&#10;-31 -29 c-59 -57 -76 -130 -46 -203 17 -40 19 -53 7 -53 -11 0 -37 56 -47 98&#10;-15 72 45 198 100 206 20 3 20 11 22 757 2 890 -8 1289 -37 1464 -12 66 -27&#10;184 -35 262 -8 79 -31 216 -51 305 -55 242 -55 245 -32 303 16 39 22 83 27&#10;205 6 141 9 158 30 187 47 63 69 71 206 83 100 8 150 17 233 45 190 64 306&#10;143 460 315 115 129 191 250 228 361 25 79 27 96 29 276 2 170 4 195 21 220&#10;10 15 23 35 29 44 5 9 27 42 47 73 77 115 107 191 176 441 57 206 143 371 234&#10;451 24 21 72 43 149 68 138 44 172 61 193 97 34 58 9 107 -60 118 -56 9 -62&#10;28 -36 108 25 76 28 136 8 171 -15 28 -64 62 -88 62 -25 0 -84 -29 -151 -73&#10;-32 -21 -79 -48 -104 -59 -57 -25 -63 -18 -63 79 0 89 -10 117 -52 143 -58 36&#10;-120 3 -159 -82 -42 -94 -161 -321 -202 -388 -22 -36 -46 -77 -54 -92 -30 -58&#10;-303 -496 -344 -553 -59 -80 -129 -133 -314 -240 -171 -98 -172 -99 -230 -136&#10;-83 -54 -164 -89 -205 -89 -36 0 -40 3 -40 25 0 15 21 48 59 90 32 37 71 92&#10;86 123 24 49 28 69 28 142 0 47 -6 103 -13 125 -18 55 -70 132 -124 185 -45&#10;43 -46 45 -44 105 2 67 -7 89 -61 155 -20 25 -48 61 -61 80 -14 19 -36 44 -50&#10;55 -14 11 -57 52 -96 92 -38 40 -78 73 -88 73 -10 0 -47 29 -83 64 -55 55 -77&#10;69 -146 94 -45 17 -120 47 -167 67 -47 21 -119 48 -160 61 -66 20 -71 23 -38&#10;23 35 1 38 3 48 44 6 23 15 55 20 71 15 44 12 74 -7 85 -16 9 -16 12 -3 25 8&#10;9 30 18 48 22 40 8 41 -6 12 -92 -49 -142 -51 -153 -30 -174 11 -11 33 -20 48&#10;-20 27 0 30 5 60 95 35 106 81 205 94 205 6 0 28 -13 51 -30 42 -29 42 -30 87&#10;-14 89 31 157 2 169 -73 l6 -38 60 3 c33 2 72 -1 88 -7 38 -15 69 -67 65 -113&#10;-4 -43 3 -48 67 -48 62 0 69 -29 35 -137 -27 -86 -41 -112 -100 -176 -55 -61&#10;-59 -71 -31 -87 48 -25 89 0 167 101 25 33 50 59 55 59 14 0 33 -46 25 -65 -4&#10;-12 -10 -14 -26 -5 -17 9 -23 5 -45 -30 -14 -23 -46 -55 -70 -72 -25 -18 -45&#10;-36 -45 -41 0 -5 7 -24 16 -43 15 -31 20 -34 58 -34 22 0 59 -5 80 -11 36 -10&#10;41 -9 56 10 l16 22 22 -21 c13 -12 22 -33 22 -50 0 -17 -2 -30 -3 -30 -2 0&#10;-30 9 -62 20 -64 22 -105 26 -105 10 0 -32 35 -72 83 -96 28 -15 71 -40 95&#10;-56 55 -38 57 -72 6 -117 l-35 -31 32 -83 c26 -68 32 -96 33 -163 0 -74 -3&#10;-85 -37 -148 -21 -37 -60 -97 -87 -133 -48 -64 -58 -83 -42 -83 4 0 63 29 132&#10;64 120 61 126 66 158 120 19 32 44 61 58 67 13 5 35 13 48 18 22 9 23 12 14&#10;62 -15 81 4 140 59 189 25 22 50 40 54 40 17 0 8 30 -23 76 -20 31 -33 63 -36&#10;94 -4 45 -2 51 38 93 l41 46 -39 43 c-48 53 -62 79 -62 115 0 34 28 98 69 157&#10;39 56 39 66 -1 66 -46 1 -113 33 -134 64 -14 22 -16 43 -12 116 l5 89 -59 12&#10;c-110 22 -152 89 -113 182 8 20 15 39 15 42 0 3 -30 6 -67 6 -38 1 -81 4 -98&#10;8 -41 8 -65 58 -65 133 l0 58 -90 -7 -89 -6 -36 36 c-30 30 -35 42 -35 81 0&#10;53 -5 55 -70 25 -25 -11 -68 -23 -95 -26 -44 -5 -55 -2 -81 20 -24 20 -49 58&#10;-70 105 -1 2 -32 -13 -69 -32 -109 -58 -148 -50 -217 45 l-18 24 -22 -30 c-39&#10;-52 -66 -75 -88 -75 -12 0 -73 34 -135 75 -63 41 -116 75 -119 75 -3 0 -8 -10&#10;-10 -22z m294 -274 c39 -25 70 -49 70 -54 0 -13 -63 -70 -77 -70 -7 0 -13 9&#10;-13 20 0 24 -44 115 -61 125 -6 4 -16 2 -22 -4 -20 -20 -37 -12 -37 17 0 16 3&#10;31 6 35 8 8 45 -11 134 -69z m-220 9 l22 -28 -29 -5 c-20 -4 -29 -12 -31 -29&#10;-3 -22 9 -86 24 -125 6 -15 -1 -17 -52 -14 -53 3 -59 5 -56 23 5 30 85 205 93&#10;205 4 0 17 -12 29 -27z m2670 -493 c24 -24 25 -49 4 -130 -20 -80 -8 -116 41&#10;-126 42 -8 92 16 207 97 61 43 98 62 120 63 43 1 43 -16 1 -30 -18 -6 -48 -24&#10;-66 -40 -19 -16 -48 -37 -66 -46 -58 -32 -55 -73 4 -45 63 30 74 17 25 -30&#10;-33 -30 -38 -51 -16 -59 38 -15 95 64 96 130 0 49 58 91 73 53 6 -17 -19 -140&#10;-34 -168 -12 -24 -67 -59 -91 -59 -9 0 -20 -5 -24 -12 -5 -8 22 -10 108 -5 94&#10;6 118 4 127 -7 29 -35 -57 -76 -157 -76 -70 0 -111 -20 -181 -89 -135 -134&#10;-148 -158 -270 -509 -102 -295 -121 -339 -190 -444 -67 -101 -199 -250 -220&#10;-246 -19 4 -159 281 -190 377 -48 145 -27 200 227 606 88 141 158 250 183 285&#10;10 14 26 39 34 56 21 40 52 69 90 81 21 7 29 16 27 29 -1 10 -5 36 -9 56 -4&#10;29 1 49 25 96 17 32 36 87 43 123 18 93 38 110 79 69z m-2571 -21 c31 -11 41&#10;-32 20 -45 -7 -4 -31 3 -54 16 -49 27 -93 23 -146 -13 -38 -26 -72 -79 -67&#10;-104 3 -14 8 -11 23 14 20 35 70 58 99 47 13 -5 14 -9 5 -20 -6 -8 -19 -14&#10;-28 -14 -28 0 -62 -45 -67 -87 -9 -69 54 -133 131 -133 32 0 33 -18 0 -26 -49&#10;-12 -115 21 -161 82 -25 33 -29 46 -29 103 1 97 43 167 110 184 37 9 132 7&#10;164 -4z m135 -8 c3 -4 0 -21 -6 -37 -9 -24 -7 -36 10 -68 26 -48 20 -61 -17&#10;-41 -33 17 -59 53 -67 94 -5 25 -2 32 22 45 33 17 51 20 58 7z m-2275 -33 c58&#10;-59 124 -165 124 -199 0 -17 -4 -34 -10 -37 -15 -10 -36 -53 -29 -60 9 -9 66&#10;50 72 74 3 12 -4 40 -15 62 -27 53 -27 102 -1 130 23 25 43 28 58 9 20 -24 63&#10;-220 76 -347 l14 -129 100 -184 c98 -181 138 -244 245 -386 56 -74 96 -172&#10;112 -270 5 -31 13 -45 26 -48 11 -3 19 -14 19 -27 0 -32 -32 -153 -89 -341&#10;-29 -93 -72 -237 -97 -320 -73 -244 -144 -369 -181 -319 -16 22 -16 33 -2 110&#10;13 73 88 312 100 320 14 8 11 -44 -6 -106 -31 -117 -9 -193 34 -113 17 33 61&#10;204 61 238 -1 23 -16 46 -62 95 -84 90 -240 271 -287 333 -83 111 -207 386&#10;-306 682 -26 77 -57 156 -70 176 -13 19 -74 82 -136 140 -147 135 -184 174&#10;-199 210 -10 23 -10 32 0 44 21 25 43 18 108 -35 34 -27 67 -50 73 -50 8 0 10&#10;15 6 48 -26 197 -20 242 28 242 34 0 52 -29 59 -95 11 -91 25 -135 43 -135 11&#10;0 14 6 9 23 -3 12 -16 62 -29 111 -17 64 -29 93 -45 104 -31 21 -28 42 7 42&#10;43 0 78 -34 122 -121 21 -43 42 -79 45 -79 14 0 -6 73 -35 130 -30 60 -38 90&#10;-24 103 16 16 53 5 82 -25z m2201 -93 c110 -132 165 -128 128 9 -9 36 -9 48 1&#10;60 19 23 31 20 31 -9 0 -14 9 -39 21 -54 20 -28 28 -88 14 -110 -13 -21 -67&#10;-43 -92 -36 -13 3 -64 44 -112 90 -48 46 -100 89 -115 95 -23 9 -26 13 -16 25&#10;7 8 25 15 41 15 23 0 41 -15 99 -85z m311 3 c30 -34 45 -65 35 -75 -14 -15&#10;-126 61 -126 86 0 34 56 27 91 -11z m-415 -26 c6 -4 35 -38 63 -76 50 -66 51&#10;-68 24 -61 -15 3 -50 28 -78 54 -28 26 -63 51 -79 55 -34 8 -24 23 19 29 17 2&#10;32 5 35 5 3 1 10 -2 16 -6z m567 -31 c18 -16 42 -46 52 -65 14 -27 31 -39 64&#10;-51 49 -16 101 -60 101 -83 0 -12 -3 -12 -19 2 -11 10 -41 24 -67 32 -57 17&#10;-94 40 -94 58 0 25 -78 103 -110 109 -41 9 -38 27 5 27 24 0 45 -9 68 -29z&#10;m777 -41 c72 -28 86 -44 57 -62 -23 -15 -37 -8 -37 17 0 20 -5 25 -27 25 -15&#10;0 -42 -5 -60 -12 -41 -15 -59 -2 -49 36 8 33 24 33 116 -4z m-1630 -49 c0 -29&#10;-9 -49 -35 -82 -22 -27 -45 -75 -61 -126 -17 -55 -34 -89 -50 -102 -25 -20&#10;-100 -38 -112 -27 -10 10 32 60 66 77 48 25 58 35 70 78 7 21 30 64 51 96 22&#10;32 42 73 46 91 8 46 25 43 25 -5z m719 5 c49 -37 62 -54 86 -124 8 -23 28 -59&#10;44 -80 21 -26 33 -55 40 -99 17 -109 31 -122 193 -177 153 -52 199 -81 238&#10;-148 56 -99 34 -185 -76 -299 -35 -37 -64 -75 -64 -84 0 -9 7 -32 16 -51 9&#10;-19 14 -37 11 -40 -12 -12 -57 33 -63 63 -10 50 2 78 57 140 68 74 93 130 87&#10;199 -7 83 -37 114 -181 184 -66 32 -125 57 -129 54 -14 -9 -8 -51 10 -66 9 -9&#10;46 -30 81 -47 96 -46 141 -96 141 -156 0 -37 -15 -62 -76 -126 -29 -31 -56&#10;-68 -60 -83 -8 -32 -20 -34 -27 -4 -7 26 3 46 59 115 71 87 56 152 -53 228&#10;-35 25 -68 45 -73 45 -15 0 -12 -48 5 -80 8 -16 26 -46 40 -66 30 -44 31 -77&#10;6 -137 -10 -24 -24 -77 -30 -117 -21 -133 -99 -246 -218 -318 -109 -66 -172&#10;-84 -280 -80 -82 3 -99 8 -165 41 -160 81 -267 215 -343 425 -53 150 -81 352&#10;-73 538 5 110 7 116 44 181 22 37 51 74 66 82 25 14 30 13 98 -22 93 -48 136&#10;-49 186 -5 34 30 42 33 95 30 52 -3 61 -1 84 23 15 14 39 28 55 32 16 3 41 18&#10;56 34 36 37 56 37 113 -5z m120 8 c13 -9 34 -41 47 -70 22 -49 29 -56 89 -83&#10;36 -16 65 -34 65 -39 0 -5 11 -21 25 -36 18 -20 34 -26 65 -26 33 0 48 -6 71&#10;-29 28 -29 37 -51 21 -51 -4 0 -13 5 -19 11 -6 6 -35 13 -64 15 -82 8 -111 21&#10;-144 65 -16 23 -47 49 -67 60 -44 22 -62 47 -84 111 -12 39 -21 49 -49 59 -19&#10;7 -32 16 -29 21 9 13 48 9 73 -8z m895 -112 c3 -5 -17 -50 -43 -101 l-48 -93&#10;-37 45 c-20 24 -36 46 -36 49 0 3 27 8 60 12 66 8 85 26 74 71 -5 19 -2 25 9&#10;25 9 0 18 -4 21 -8z m-766 -140 c15 -15 35 -42 44 -60 17 -31 19 -32 85 -32&#10;62 0 70 -2 100 -32 25 -24 40 -31 68 -30 37 1 43 -6 23 -26 -19 -19 -77 -14&#10;-108 8 -22 16 -41 20 -93 18 -76 -3 -103 13 -113 71 -4 20 -18 50 -31 67 -12&#10;17 -23 34 -23 37 0 15 23 5 48 -21z m-1079 -187 c26 -67 -10 -215 -63 -257&#10;-26 -22 -101 -23 -140 -3 -38 20 -46 19 -46 -7 0 -13 -4 -29 -9 -37 -7 -11&#10;-12 -8 -26 12 -30 46 9 123 66 129 21 3 24 -1 27 -34 3 -30 7 -38 23 -38 54 0&#10;115 69 107 123 -2 18 -9 21 -30 19 -39 -5 -35 15 7 39 28 17 36 29 41 60 8 48&#10;24 46 43 -6z m1537 -197 c43 -51 64 -107 63 -168 -1 -84 -14 -107 -22 -36 -8&#10;83 -20 88 -50 22 -29 -62 -55 -78 -30 -18 15 36 14 103 -3 200 -4 19 -2 32 4&#10;32 6 0 23 -15 38 -32z m-1536 -83 c0 -50 -66 -109 -117 -103 -27 3 -27 4 17&#10;30 25 15 54 40 65 57 22 33 35 40 35 16z m-5 -155 c-19 -37 -63 -66 -115 -74&#10;-38 -6 -70 -35 -70 -63 0 -11 6 -10 30 2 16 8 47 15 70 15 44 0 95 21 103 42&#10;2 7 7 10 11 6 8 -7 -11 -49 -28 -61 -6 -4 -40 -16 -76 -27 -73 -22 -90 -40&#10;-90 -99 0 -22 -4 -42 -9 -46 -26 -16 -69 82 -51 116 6 9 18 55 28 101 l18 83&#10;68 6 c55 5 72 10 94 33 33 32 42 14 17 -34z m2253 -201 c12 -50 78 -226 146&#10;-392 69 -166 129 -322 135 -347 24 -103 5 -207 -50 -273 -37 -44 -128 -109&#10;-206 -144 -85 -39 -155 -22 -241 57 -55 50 -87 53 -100 8 -6 -18 -13 -55 -17&#10;-83 -13 -95 -56 -142 -120 -132 -20 3 -47 15 -62 26 -35 29 -46 27 -86 -15&#10;-28 -30 -39 -36 -61 -30 -39 10 -56 55 -66 174 -11 129 -16 169 -41 292 -11&#10;52 -24 174 -29 269 -11 209 -15 231 -41 231 -25 0 -27 -13 -33 -215 -3 -100&#10;-12 -195 -20 -230 -15 -59 -150 -339 -191 -395 -71 -98 -166 -218 -186 -237&#10;-32 -29 -71 -43 -120 -43 -61 0 -48 21 43 74 50 28 77 68 70 100 -6 29 -54 13&#10;-148 -50 -56 -37 -97 -58 -125 -61 -58 -8 -49 13 23 52 30 17 74 47 98 68 47&#10;43 112 76 150 77 45 1 108 37 140 82 62 85 146 277 179 408 6 25 25 128 41&#10;229 17 102 35 190 41 198 18 21 63 16 85 -9 20 -23 78 -226 145 -503 67 -277&#10;131 -402 197 -381 28 9 42 56 42 135 0 64 -24 335 -55 630 -20 188 -20 301 -1&#10;301 16 0 33 -43 71 -185 25 -94 135 -436 154 -480 48 -113 109 -220 142 -250&#10;37 -33 43 -35 107 -35 130 0 215 69 229 187 12 106 -24 238 -159 583 -92 234&#10;-103 268 -113 348 -11 82 8 60 33 -39z m-2080 -98 c33 -71 42 -179 18 -216&#10;-18 -27 -53 -33 -87 -14 -18 9 -19 12 -6 27 8 9 17 42 21 72 4 30 9 70 12 88&#10;5 25 3 32 -9 32 -20 0 -53 -55 -61 -101 -9 -49 -46 -77 -77 -59 -11 7 -10 12&#10;4 28 11 12 17 35 17 65 0 42 4 50 58 105 65 68 65 68 110 -27z m-611 -121 c51&#10;-31 56 -49 44 -161 -14 -127 -14 -234 0 -299 10 -46 30 -72 46 -57 3 4 11 61&#10;18 129 20 191 60 318 99 318 23 0 56 -50 56 -85 0 -17 -21 -115 -46 -216 -36&#10;-149 -94 -413 -94 -433 0 -3 -7 -12 -16 -20 -24 -25 -47 -5 -82 72 -48 104&#10;-81 223 -97 356 -15 120 -20 370 -9 400 8 22 42 20 81 -4z m1472 -36 c12 -15&#10;21 -35 21 -45 0 -52 -168 -159 -285 -180 -136 -25 -352 10 -409 67 -20 19 -21&#10;78 -2 97 16 15 15 16 171 -18 137 -30 291 -3 405 69 30 20 60 36 67 36 6 0 21&#10;-12 32 -26z m251 -65 c0 -35 -76 -128 -135 -165 -38 -25 -45 -34 -45 -61 0&#10;-28 -4 -33 -23 -33 -13 0 -28 5 -34 11 -11 11 -131 -32 -144 -52 -3 -6 -3 -27&#10;1 -46 8 -35 8 -35 -21 -29 -25 5 -30 3 -27 -12 1 -9 -1 -23 -6 -31 -5 -8 -4&#10;-16 4 -21 17 -10 4 -30 -21 -30 -10 0 -19 -7 -19 -15 0 -8 -9 -15 -20 -15 -11&#10;0 -20 -7 -20 -15 0 -17 -9 -19 -29 -6 -10 7 -20 1 -35 -22 -28 -41 -37 -42&#10;-61 -4 -13 21 -30 33 -48 35 -26 3 -27 6 -21 37 5 31 3 36 -34 60 -22 15 -45&#10;39 -51 54 -7 15 -31 37 -57 51 -38 21 -46 23 -54 11 -5 -9 -4 -22 3 -34 7 -11&#10;17 -28 23 -39 6 -10 20 -29 32 -41 11 -12 22 -33 24 -47 2 -15 14 -30 31 -38&#10;34 -16 35 -32 2 -32 -37 0 -70 19 -89 51 -9 16 -26 34 -37 39 -10 6 -19 17&#10;-19 24 0 7 -11 34 -25 60 -30 57 -31 66 -5 59 36 -9 21 16 -21 37 -45 21 -59&#10;19 -59 -10 0 -23 -28 -34 -47 -18 -10 8 -13 22 -9 40 3 16 1 28 -5 28 -5 0&#10;-32 22 -59 50 l-50 49 0 -40 c0 -32 4 -42 20 -46 38 -10 33 -73 -6 -73 -29 0&#10;-13 -19 19 -22 24 -2 33 -8 35 -24 4 -31 -21 -48 -49 -34 l-22 12 6 -118 c6&#10;-122 29 -225 68 -308 26 -56 102 -140 172 -190 30 -22 59 -48 66 -58 10 -16 8&#10;-18 -21 -18 -54 0 -138 50 -219 130 -66 65 -79 84 -100 145 -21 62 -24 88 -24&#10;225 0 85 4 212 9 282 8 118 7 128 -9 134 -30 12 -53 -28 -59 -104 -14 -153&#10;-27 -256 -47 -354 -11 -56 -24 -167 -28 -246 -6 -92 -13 -148 -22 -158 -10&#10;-13 -28 -15 -85 -12 -59 3 -80 9 -123 36 -84 52 -95 39 -31 -37 45 -54 50 -71&#10;18 -71 -32 0 -107 84 -211 240 -113 169 -151 248 -152 314 0 28 5 51 11 53 7&#10;2 46 -58 88 -134 83 -150 111 -192 122 -180 4 4 -18 58 -50 119 -64 128 -77&#10;173 -102 352 -19 139 -14 181 21 181 23 0 31 -28 60 -210 20 -132 54 -242 105&#10;-350 76 -158 158 -255 215 -255 29 0 36 18 24 66 -15 69 -10 148 15 226 14 42&#10;43 167 65 279 46 236 55 264 89 302 29 31 66 35 101 11 17 -12 26 -13 34 -5&#10;20 20 37 12 37 -18 0 -63 36 -85 278 -170 137 -48 190 -72 247 -110 17 -12 36&#10;-21 43 -21 7 0 39 18 72 41 33 23 109 60 168 83 156 61 270 144 312 227 19 36&#10;50 54 50 28z m-112 -36 c45 41 42 8 -4 -42 -51 -57 -119 -98 -254 -151 -65&#10;-26 -146 -67 -179 -90 l-60 -42 -33 25 c-35 27 -130 64 -282 112 -128 39 -237&#10;107 -213 132 4 3 21 -4 38 -15 29 -18 35 -19 55 -6 20 14 26 12 65 -14 24 -17&#10;49 -28 56 -25 8 3 21 -1 31 -10 9 -8 37 -18 62 -22 25 -4 51 -12 58 -18 30&#10;-24 227 -14 288 14 11 6 24 9 30 8 16 -4 63 13 75 27 6 8 20 14 29 14 10 0 20&#10;3 22 8 2 4 21 16 43 27 22 11 42 22 45 25 3 3 20 18 39 33 32 26 35 27 52 11&#10;18 -16 20 -16 37 -1z m46 -129 c22 -8 20 -41 -2 -53 -22 -12 -42 3 -42 29 0&#10;28 14 36 44 24z m1 -114 c0 -18 -6 -26 -23 -28 -13 -2 -25 3 -28 12 -10 26 4&#10;48 28 44 17 -2 23 -10 23 -28z m-131 -22 c16 -25 -11 -49 -41 -37 -25 9 -30&#10;28 -11 47 16 16 38 12 52 -10z m-844 -43 c18 -21 5 -45 -25 -45 -27 0 -41 20&#10;-31 45 7 19 40 19 56 0z m959 -19 c16 -20 3 -46 -24 -46 -27 0 -36 17 -23 43&#10;10 20 31 22 47 3z m-139 -11 c16 -19 6 -45 -18 -45 -29 0 -48 26 -32 45 16 19&#10;34 19 50 0z m-916 -21 c10 -10 14 -24 10 -40 -4 -13 -1 -31 6 -39 19 -23 4&#10;-47 -27 -43 -24 3 -28 8 -28 35 0 17 -3 35 -7 39 -12 11 -9 39 4 52 16 16 23&#10;15 42 -4z m134 -45 c3 -28 -16 -43 -43 -33 -15 6 -21 45 -8 58 16 16 48 1 51&#10;-25z m897 -19 c0 -18 -6 -26 -23 -28 -27 -4 -40 22 -22 44 19 22 45 13 45 -16z&#10;m-150 -10 c0 -18 -6 -26 -23 -28 -13 -2 -25 3 -28 12 -10 26 4 48 28 44 17 -2&#10;23 -10 23 -28z m-695 -43 c-1 -39 -43 -48 -64 -14 -9 15 -7 21 8 32 21 16 56&#10;4 56 -18z m654 -9 c8 -14 7 -21 -6 -34 -30 -30 -75 9 -48 42 16 18 39 15 54&#10;-8z m170 -14 c7 -19 -10 -44 -29 -44 -19 0 -36 25 -29 44 3 9 16 16 29 16 13&#10;0 26 -7 29 -16z m-954 -9 c6 -8 10 -22 8 -32 -4 -24 -47 -24 -62 0 -9 15 -7&#10;21 8 33 25 18 31 18 46 -1z m180 -20 c10 -12 10 -18 0 -30 -27 -32 -71 -8 -56&#10;30 3 8 14 15 24 15 11 0 25 -7 32 -15z m550 -20 c10 -12 10 -18 0 -30 -27 -32&#10;-71 -8 -56 30 3 8 14 15 24 15 11 0 25 -7 32 -15z m165 -35 c0 -18 -6 -26 -23&#10;-28 -13 -2 -25 3 -28 12 -10 26 4 48 28 44 17 -2 23 -10 23 -28z m-834 -3 c6&#10;-13 20 -27 32 -33 23 -10 25 -43 4 -56 -15 -9 -47 9 -47 28 0 8 -11 19 -25 24&#10;-36 14 -36 60 0 60 17 0 29 -8 36 -23z m187 -8 c3 -28 -16 -43 -43 -33 -18 7&#10;-20 50 -2 57 25 11 42 1 45 -24z m422 -19 c0 -19 -32 -36 -50 -25 -14 8 -13&#10;38 2 53 15 15 48 -3 48 -28z m-161 -18 c14 -38 14 -46 -3 -92 -11 -32 -16 -62&#10;-12 -83 4 -22 1 -40 -9 -52 -8 -11 -15 -30 -15 -41 0 -27 -28 -53 -34 -33 -12&#10;38 -14 108 -4 136 9 24 8 44 -2 86 -12 54 -12 55 16 91 16 20 33 35 38 33 5&#10;-2 16 -22 25 -45z m-201 29 c8 -4 12 -19 10 -32 -2 -18 -9 -24 -28 -24 -19 0&#10;-26 6 -28 24 -3 20 11 41 28 41 3 0 11 -4 18 -9z m526 -7 c22 -8 20 -41 -3&#10;-54 -15 -7 -23 -6 -35 6 -19 19 -20 26 -4 42 14 14 20 14 42 6z m-236 -48 c-2&#10;-15 -10 -21 -28 -21 -20 0 -26 6 -28 27 -2 19 2 27 15 30 25 6 45 -11 41 -36z&#10;m-203 -6 c0 -18 -6 -26 -23 -28 -13 -2 -25 3 -28 12 -10 26 4 48 28 44 17 -2&#10;23 -10 23 -28z m-1372 0 c14 -11 47 -53 73 -93 25 -39 66 -101 90 -137 24 -36&#10;44 -71 44 -78 0 -20 -59 -14 -108 10 -105 53 -174 191 -146 296 8 27 14 27 47&#10;2z m1747 -5 c10 -12 10 -18 0 -30 -26 -32 -68 -8 -54 30 4 8 14 15 24 15 10 0&#10;23 -7 30 -15z m464 -22 c3 -21 13 -94 22 -163 8 -69 22 -156 30 -193 8 -38 14&#10;-82 14 -99 l0 -31 -23 21 c-13 12 -27 22 -31 22 -4 0 -24 -18 -45 -40 -42 -44&#10;-80 -53 -88 -20 -7 27 -13 26 -90 -15 -36 -19 -77 -35 -91 -35 -23 0 -21 3 23&#10;42 26 23 58 59 72 81 22 35 72 182 73 214 0 6 6 24 13 40 10 25 13 11 17 -112&#10;4 -116 8 -140 21 -143 13 -2 17 24 26 195 11 189 24 273 43 273 4 0 11 -17 14&#10;-37z m-1059 -3 c0 -30 -35 -40 -55 -15 -10 12 -10 18 0 30 20 25 55 15 55 -15z&#10;m523 -17 c13 -25 4 -43 -19 -43 -12 0 -23 -10 -29 -26 -9 -23 -15 -26 -40 -20&#10;-22 4 -30 2 -30 -8 0 -29 -53 -29 -64 -1 -9 24 21 46 49 35 20 -8 25 -6 25 6&#10;0 9 9 18 20 21 10 3 26 16 35 29 18 28 41 31 53 7z m-450 -16 c6 -28 -16 -49&#10;-39 -36 -19 10 -25 39 -12 53 13 13 48 1 51 -17z m68 -24 c9 -10 27 -16 39&#10;-15 30 4 52 -23 35 -43 -16 -20 -47 -19 -58 2 -6 10 -16 14 -27 9 -21 -8 -45&#10;10 -45 34 0 16 12 27 32 29 4 1 14 -7 24 -16z m-543 -147 c-3 -14 3 -48 12&#10;-75 23 -70 52 -84 168 -84 48 0 87 -4 87 -8 0 -4 -15 -18 -32 -31 -31 -22 -42&#10;-23 -186 -23 -149 0 -153 0 -158 22 -7 27 11 85 44 138 48 78 53 85 61 85 4 0&#10;6 -11 4 -24z m331 -244 c3 -5 -6 -15 -19 -22 -13 -7 -22 -17 -19 -22 12 -19&#10;205 -7 338 22 28 6 49 5 73 -5 37 -16 103 -63 103 -75 0 -4 -50 -10 -111 -14&#10;-70 -4 -122 -12 -142 -22 -36 -19 -118 -14 -189 11 -88 31 -140 18 -267 -62&#10;-34 -22 -57 -31 -63 -25 -21 21 0 47 74 96 42 28 77 54 78 59 1 17 -41 4 -103&#10;-33 -68 -42 -97 -49 -97 -27 0 42 109 94 235 112 50 7 93 13 97 14 4 1 9 -3&#10;12 -7z m1181 -116 c17 -12 18 -18 7 -53 -15 -49 -16 -152 -2 -188 7 -19 7 -34&#10;-3 -53 -12 -25 -17 -27 -79 -27 -36 0 -69 -3 -73 -7 -4 -4 9 -36 29 -72 37&#10;-66 87 -205 111 -311 18 -78 24 -610 6 -628 -6 -6 -11 -21 -11 -34 0 -16 -6&#10;-23 -20 -24 -11 -1 -26 -2 -32 -3 -30 -5 -48 15 -47 52 0 20 4 46 9 57 6 15 9&#10;8 9 -27 1 -27 5 -48 11 -48 10 0 18 40 23 115 2 35 4 27 5 -27 2 -98 21 -115&#10;24 -21 3 111 5 137 12 185 8 51 5 55 -43 60 -32 3 -34 1 -52 -47 -11 -27 -31&#10;-74 -45 -103 -26 -55 -50 -162 -55 -244 -5 -87 8 -60 25 52 15 97 46 200 60&#10;200 3 0 -2 -17 -11 -37 -20 -49 -42 -173 -43 -242 0 -82 9 -57 24 65 8 71 23&#10;132 40 174 15 36 30 73 33 83 6 18 23 24 23 7 0 -6 -12 -34 -27 -63 -24 -47&#10;-28 -66 -33 -188 -6 -144 -14 -169 -54 -169 -11 0 -34 9 -51 20 -16 11 -45 20&#10;-62 20 -22 0 -43 10 -64 28 l-31 28 11 119 c10 113 14 126 58 215 62 125 64&#10;168 9 259 -22 36 -45 85 -53 109 -17 60 -17 224 2 341 19 113 12 126 -43 88&#10;-72 -51 -89 -35 -96 88 -2 50 -8 111 -11 136 -9 63 13 79 108 79 61 0 74 -4&#10;112 -31 24 -17 51 -29 61 -27 15 2 11 8 -19 25 -20 12 -37 26 -37 31 0 5 24&#10;19 53 30 63 25 202 30 232 8z m-1092 -67 c37 -13 67 -26 67 -30 0 -12 -79 -73&#10;-150 -116 -80 -49 -235 -133 -244 -133 -25 0 54 74 208 193 33 25 48 57 28 57&#10;-17 0 -313 -139 -338 -159 -15 -12 -37 -21 -50 -21 -20 0 -24 5 -24 28 1 44&#10;85 122 133 122 17 0 17 -2 -2 -26 -46 -59 -11 -54 89 11 36 24 83 57 105 75&#10;46 37 66 36 178 -1z m362 21 c3 -5 -10 -16 -30 -24 -37 -16 -47 -36 -17 -36 9&#10;0 56 11 105 24 87 24 117 21 74 -7 -13 -8 -92 -47 -177 -87 -257 -121 -651&#10;-335 -766 -416 -34 -24 -79 -67 -100 -95 -56 -77 -119 -97 -181 -59 -28 17&#10;-33 25 -33 60 0 27 7 47 20 60 31 31 39 25 42 -32 3 -45 6 -53 24 -56 28 -4&#10;54 28 65 80 13 56 49 101 107 134 26 15 108 63 182 107 74 44 205 120 290 170&#10;85 49 177 105 205 125 62 45 175 76 190 52z m156 -100 c14 -8 19 -21 19 -48 0&#10;-61 -14 -71 -105 -73 -124 -2 -145 0 -145 14 0 14 167 115 193 116 10 1 27 -4&#10;38 -9z m-237 -178 c11 -18 -63 -70 -149 -106 -106 -44 -148 -82 -143 -129 3&#10;-28 7 -32 35 -35 42 -4 89 22 155 83 141 133 232 193 244 161 10 -27 -30 -81&#10;-155 -211 -236 -244 -263 -265 -340 -265 -56 0 -83 20 -148 108 -62 83 -75&#10;135 -37 140 16 2 29 -9 54 -50 61 -97 90 -119 134 -102 17 7 22 59 7 69 -17&#10;10 -52 117 -45 137 13 42 70 91 156 134 115 58 219 87 232 66z m343 -234 c-14&#10;-140 -182 -547 -397 -961 -56 -110 -61 -123 -58 -175 3 -56 4 -57 33 -57 39 0&#10;53 29 61 128 5 73 7 78 27 75 44 -6 57 -58 57 -233 0 -139 3 -166 21 -205 35&#10;-78 138 -169 168 -150 16 9 13 33 -24 160 -24 86 -28 115 -32 300 -6 230 5&#10;336 58 539 32 125 50 163 91 194 44 33 61 17 54 -51 -4 -31 -9 -174 -12 -317&#10;l-5 -260 61 -85 c34 -46 68 -100 77 -120 28 -68 63 -216 78 -330 14 -111 36&#10;-194 69 -257 32 -63 74 -50 105 32 70 187 86 364 76 836 -4 218 -3 339 3 343&#10;43 26 89 -641 64 -915 -12 -132 -31 -193 -109 -364 -30 -66 -59 -133 -64 -150&#10;-19 -57 -30 -224 -19 -265 20 -74 50 -61 50 22 0 115 34 268 60 268 17 0 1&#10;-316 -25 -480 -25 -156 -34 -189 -58 -209 -13 -10 -19 -9 -36 8 -17 17 -21 34&#10;-21 82 0 34 -13 122 -30 196 -20 87 -30 161 -30 213 0 96 -4 100 -127 111 -55&#10;5 -102 16 -139 33 -154 71 -419 304 -524 461 -86 128 -278 541 -266 572 6 14&#10;9 14 26 -2 11 -10 20 -23 20 -28 0 -25 109 -221 195 -351 151 -228 308 -392&#10;467 -488 72 -44 101 -47 123 -14 34 51 -22 117 -157 188 -133 70 -175 109&#10;-252 236 -43 71 -82 122 -117 151 -79 67 -109 122 -109 195 0 68 22 121 105&#10;261 105 176 190 332 242 442 38 82 181 419 196 466 4 9 12 17 18 17 9 0 10&#10;-18 6 -62z m-102 15 c-15 -63 -142 -367 -201 -484 -78 -154 -185 -334 -221&#10;-371 -42 -44 -84 -53 -135 -30 -59 26 -102 78 -159 195 -69 142 -189 522 -173&#10;549 19 31 40 -7 99 -178 92 -266 151 -402 196 -446 56 -57 96 -50 149 27 49&#10;71 219 366 331 573 98 181 130 227 114 165z m-916 -175 c4 -13 32 -135 61&#10;-273 84 -405 238 -835 442 -1239 66 -132 191 -351 249 -437 95 -141 136 -247&#10;106 -276 -14 -14 -21 -10 -78 43 -145 137 -324 376 -434 577 -40 73 -78 103&#10;-96 76 -14 -22 -1 -103 37 -218 38 -117 42 -151 18 -151 -25 0 -74 59 -110&#10;133 -33 70 -54 150 -74 292 -7 44 -23 128 -36 186 -26 117 -54 292 -54 340 0&#10;55 23 26 53 -67 32 -99 57 -139 57 -90 0 15 -29 159 -65 319 -82 372 -155 726&#10;-155 754 0 48 63 73 79 31z m-119 -95 c1 -123 22 -459 35 -548 8 -60 20 -146&#10;26 -190 6 -44 28 -201 49 -350 22 -148 36 -272 33 -275 -3 -3 -8 1 -10 8 -11&#10;29 -71 98 -97 110 -22 11 -33 11 -57 2 -38 -16 -95 -108 -110 -178 -22 -109 7&#10;-252 52 -252 24 0 49 38 49 75 0 34 -26 79 -41 70 -12 -8 -12 -52 1 -60 6 -3&#10;10 -15 10 -26 0 -32 -30 -22 -46 16 -31 74 -8 207 47 270 75 85 138 46 188&#10;-119 25 -82 27 -136 5 -182 -23 -48 -46 -46 -39 3 7 44 -6 69 -29 60 -25 -10&#10;-22 -111 4 -137 11 -11 26 -20 34 -20 16 0 66 55 66 73 0 8 3 8 11 0 12 -12 8&#10;-85 -5 -115 -6 -13 -4 -18 8 -18 13 0 16 -13 16 -78 0 -43 -3 -82 -7 -85 -3&#10;-4 -67 25 -142 64 -133 70 -136 71 -206 70 -38 -1 -79 -3 -89 -4 -37 -4 -44&#10;118 -10 185 10 19 14 66 14 152 0 69 4 127 9 130 4 3 16 -3 26 -14 23 -25 32&#10;-25 40 -1 3 11 17 36 31 56 25 37 24 66 0 32 -18 -24 -23 -22 -31 13 -8 37&#10;-25 30 -25 -11 0 -24 -4 -30 -17 -27 -24 5 -20 69 13 237 33 173 59 358 84&#10;601 25 256 47 419 61 459 14 41 49 43 49 4z m-235 -1059 c-45 -289 -44 -284&#10;-60 -284 -18 0 -65 57 -60 73 2 6 25 84 50 172 81 282 99 334 103 299 2 -17&#10;-13 -134 -33 -260z m-87 -291 c38 -34 37 -58 -8 -99 -22 -20 -40 -42 -40 -48&#10;0 -6 -16 -36 -35 -66 -39 -62 -45 -49 -20 41 59 206 60 208 103 172z m4 -203&#10;c-2 -13 -18 -37 -36 -54 -23 -22 -35 -44 -40 -74 -7 -49 -3 -62 24 -62 29 0&#10;32 -14 24 -111 l-7 -90 -58 -30 c-94 -47 -100 -42 -87 73 4 45 14 77 29 97 18&#10;25 20 34 11 61 -13 36 -5 62 39 126 57 84 108 116 101 64z m602 -364 c-6 -32&#10;-4 -35 23 -38 27 -3 26 -5 -27 -35 -30 -18 -59 -33 -64 -33 -15 0 1 78 24 110&#10;30 42 53 40 44 -4z m-335 -12 c87 -22 191 -69 191 -87 0 -29 -27 -36 -134 -36&#10;-120 0 -138 -7 -192 -68 -18 -21 -36 -33 -43 -29 -14 9 -15 154 -1 190 16 44&#10;80 54 179 30z m586 -83 c52 -24 78 -53 110 -123 44 -96 32 -223 -25 -272 -53&#10;-44 -121 -46 -173 -5 -53 41 -24 125 40 117 22 -2 29 -9 31 -31 3 -22 -1 -30&#10;-18 -34 -27 -7 -20 -27 11 -32 32 -4 84 25 98 55 16 36 12 142 -7 193 -10 26&#10;-33 57 -55 75 -37 29 -43 31 -125 31 -73 -1 -93 -4 -124 -24 -69 -42 -100&#10;-130 -61 -173 21 -24 48 -24 38 0 -13 30 -11 44 8 56 15 9 22 7 38 -13 10 -13&#10;19 -31 19 -42 0 -26 -38 -49 -81 -49 -111 0 -103 178 10 244 85 49 194 60 266&#10;27z m-844 -78 c3 -18 14 -44 23 -57 22 -35 107 -96 195 -142 87 -46 161 -111&#10;161 -142 0 -29 -6 -28 -48 9 -19 17 -97 61 -172 98 -180 89 -205 105 -224 145&#10;-22 46 -21 102 2 115 31 19 56 9 63 -26z m499 22 c0 -8 -4 -15 -10 -15 -5 0&#10;-10 7 -10 15 0 8 5 15 10 15 6 0 10 -7 10 -15z m191 -88 c12 -44 18 -43 28 5&#10;5 22 12 32 23 30 8 -1 21 5 28 13 7 8 19 15 27 15 11 0 11 -4 2 -22 -9 -17 -8&#10;-24 5 -34 15 -10 12 -14 -21 -34 -38 -23 -32 -41 6 -21 11 6 36 11 57 11 32 0&#10;35 -2 24 -15 -11 -13 -9 -19 8 -36 21 -19 30 -49 15 -49 -5 0 -21 9 -38 20&#10;-38 25 -85 25 -134 0 l-39 -19 -6 42 c-8 51 -40 107 -62 107 -8 0 -24 -5 -36&#10;-11 -11 -6 -22 -8 -25 -6 -10 11 19 47 37 47 11 0 24 9 31 21 l11 21 24 -23&#10;c13 -12 29 -40 35 -62z m-301 58 c0 -2 -5 -15 -11 -28 -24 -53 -123 -76 -170&#10;-39 -29 24 -20 58 14 47 55 -17 77 -17 109 4 31 19 58 27 58 16z m718 -88 c3&#10;-23 8 -27 35 -27 31 0 30 -2 -31 -40 -35 -22 -67 -38 -72 -35 -4 3 -11 22 -15&#10;42 -3 21 -9 49 -12 63 -6 24 -6 24 20 7 26 -17 27 -16 39 3 17 26 32 20 36&#10;-13z m-652 -25 c6 -27 4 -31 -10 -26 -9 3 -23 0 -32 -7 -13 -10 -16 -9 -21 9&#10;-3 11 -12 23 -22 24 -11 3 -3 11 24 25 45 24 52 21 61 -25z m892 -58 c50 -20&#10;88 -59 120 -119 22 -42 27 -63 27 -130 0 -97 -22 -142 -84 -170 -88 -39 -197&#10;27 -160 97 16 30 28 38 61 38 18 0 29 -6 33 -20 7 -24 -10 -50 -32 -50 -13 0&#10;-13 -3 -3 -15 20 -24 66 -18 102 14 32 29 33 31 33 113 0 73 -4 90 -28 130&#10;-45 78 -144 108 -251 76 -49 -15 -111 -74 -118 -113 -8 -38 9 -83 34 -91 26&#10;-8 32 0 17 24 -15 25 -5 52 19 52 22 0 36 -15 46 -47 10 -33 -25 -63 -71 -63&#10;-45 1 -65 14 -81 55 -33 83 46 188 168 226 43 13 129 10 168 -7z m-668 -66 c0&#10;-33 -14 -51 -36 -46 -25 5 -30 39 -8 55 27 19 44 16 44 -9z m330 -17 c0 -6 -4&#10;-13 -10 -16 -5 -3 -10 1 -10 9 0 9 5 16 10 16 6 0 10 -4 10 -9z m180 -23 c11&#10;-18 20 -41 20 -50 0 -36 20 -27 26 12 5 32 10 39 24 35 9 -3 23 1 30 10 20 24&#10;32 18 25 -15 -5 -25 -3 -30 12 -30 12 0 5 -8 -19 -22 -38 -22 -53 -46 -21 -34&#10;9 4 36 10 59 13 39 5 42 4 38 -14 -3 -11 2 -25 10 -32 15 -13 23 -51 10 -51&#10;-3 0 -17 9 -31 20 -34 26 -96 26 -139 0 l-33 -21 -6 38 c-13 83 -52 126 -94&#10;104 -26 -15 -31 -14 -31 5 0 8 16 22 35 30 19 8 35 19 35 24 0 22 32 8 50 -22z&#10;m-555 -85 c272 -124 431 -222 453 -280 6 -17 12 -188 16 -446 5 -467 4 -480&#10;-60 -537 -39 -33 -68 -38 -102 -14 -30 21 -28 52 9 102 30 41 35 72 13 79 -10&#10;3 -49 -74 -79 -159 -15 -42 -20 -48 -45 -48 -20 0 -33 7 -41 21 -16 31 -4 101&#10;26 144 27 41 31 55 15 55 -16 0 -49 -60 -56 -100 -9 -56 -25 -100 -35 -100 -6&#10;0 -19 5 -30 10 -29 16 -26 93 6 149 28 47 29 51 17 51 -12 0 -50 -82 -57 -124&#10;-6 -31 -11 -36 -35 -36 -30 0 -41 22 -36 69 2 14 1 20 -1 13 -8 -21 -38 -9&#10;-41 17 -8 54 9 109 53 167 24 33 46 72 49 87 3 15 8 39 11 53 4 19 19 32 58&#10;50 29 13 64 24 79 24 15 0 30 5 33 10 11 17 -62 11 -115 -10 -28 -11 -55 -20&#10;-59 -20 -12 0 -27 40 -51 137 -11 45 -40 144 -64 220 -23 76 -62 207 -86 290&#10;-42 149 -43 153 -25 173 22 25 25 24 180 -47z m948 52 c10 25 37 18 37 -9 0&#10;-18 6 -25 23 -28 19 -3 16 -7 -26 -36 -27 -19 -51 -31 -54 -28 -10 9 -40 105&#10;-35 110 2 3 14 -2 27 -10 20 -13 23 -13 28 1z m-605 -57 c5 -18 9 -33 8 -34&#10;-1 -1 -16 -4 -33 -7 -25 -5 -33 -3 -33 8 0 8 -7 15 -15 15 -25 0 -17 15 18 33&#10;44 22 45 21 55 -15z m868 -52 c23 -25 49 -67 58 -93 20 -59 21 -165 1 -203&#10;-46 -88 -159 -77 -159 16 0 38 17 56 49 52 26 -4 31 -31 9 -52 -24 -24 -5 -40&#10;30 -26 38 14 59 69 51 134 -9 71 -50 153 -85 171 -117 60 -267 -76 -220 -199&#10;6 -16 17 -26 30 -26 23 0 24 4 8 29 -6 10 -8 26 -5 35 9 24 45 4 53 -30 15&#10;-58 -66 -87 -105 -38 -42 54 -18 156 53 224 50 47 82 60 141 56 44 -3 54 -8&#10;91 -50z m174 -51 c0 -16 6 -25 15 -25 23 0 18 -16 -16 -44 -45 -39 -49 -37&#10;-74 43 -6 20 -5 23 10 17 12 -4 23 0 32 14 19 27 33 25 33 -5z m-1844 -6 c25&#10;-7 43 -17 41 -23 -6 -19 -99 -45 -160 -46 -63 0 -97 12 -97 35 0 39 120 58&#10;216 34z m1584 -8 c0 -11 6 -21 13 -24 8 -3 5 -12 -10 -29 -33 -35 -28 -41 14&#10;-18 44 23 56 25 50 8 -2 -7 4 -24 14 -37 25 -31 15 -43 -21 -25 -32 16 -55 10&#10;-96 -28 l-22 -20 -17 51 c-20 60 -42 77 -73 55 -20 -14 -22 -14 -22 5 0 12 9&#10;26 20 33 11 7 20 18 20 25 0 31 42 -3 54 -44 10 -31 26 -29 26 4 0 24 25 61&#10;43 62 4 1 7 -8 7 -18z m-570 -26 c0 -28 -4 -35 -19 -35 -10 0 -25 7 -32 16&#10;-11 14 -10 19 10 35 33 27 41 24 41 -16z m315 -106 c4 -11 5 -21 3 -22 -1 -1&#10;-13 -8 -25 -14 -21 -12 -23 -11 -29 13 -10 41 39 63 51 23z m455 -59 c0 -5 -4&#10;-10 -10 -10 -5 0 -10 5 -10 10 0 6 5 10 10 10 6 0 10 -4 10 -10z m-256 -65&#10;c-4 -8 -13 -15 -20 -15 -23 0 -28 29 -8 51 l18 20 8 -20 c4 -12 5 -28 2 -36z&#10;m256 -47 c0 -5 -7 -8 -15 -8 -8 0 -15 -4 -15 -10 0 -18 -19 -11 -31 12 -10 18&#10;-8 24 12 39 23 17 24 17 36 -4 7 -12 12 -25 13 -29z m-354 -53 c46 -25 96 -45&#10;109 -45 60 0 60 -13 0 -41 l-60 -27 131 5 c121 6 135 4 176 -16 45 -21 90 -68&#10;164 -171 77 -107 83 -167 8 -83 -58 65 -57 33 1 -36 34 -40 45 -61 45 -86 0&#10;-48 -17 -52 -35 -8 -19 46 -59 99 -85 113 -34 18 -24 -16 19 -63 52 -57 64&#10;-83 57 -122 -8 -40 -36 -56 -36 -20 0 13 -4 34 -9 48 -12 32 -107 134 -116&#10;125 -8 -8 -1 -19 63 -98 45 -56 54 -97 26 -124 -8 -9 -26 -16 -40 -16 -21 0&#10;-24 4 -24 39 0 35 -7 46 -62 100 -58 56 -98 77 -98 50 0 -6 13 -23 29 -37 125&#10;-117 126 -117 91 -152 -39 -39 -114 -21 -192 49 -65 58 -105 123 -119 193 -7&#10;33 -23 76 -37 96 -14 20 -36 52 -49 71 -16 23 -23 48 -23 80 0 25 -10 78 -21&#10;118 -19 64 -21 103 -4 103 3 0 44 -20 91 -45z"/>
<path d="M5227 7191 c-7 -27 19 -93 44 -113 21 -18 65 -23 107 -12 33 9 27 17&#10;-26 36 -36 13 -57 29 -81 63 -18 25 -34 45 -35 45 -2 0 -6 -8 -9 -19z"/>
<path d="M5348 7173 c7 -3 16 -2 19 1 4 3 -2 6 -13 5 -11 0 -14 -3 -6 -6z"/>
<path d="M580 7150 c0 -21 32 -58 60 -70 36 -15 76 -6 90 20 10 18 7 19 -39&#10;17 -38 -2 -56 3 -80 21 -17 12 -31 18 -31 12z"/>
<path d="M2907 7090 c-35 -11 -57 -28 -57 -46 0 -18 25 -18 97 1 31 8 74 15&#10;95 15 48 0 57 15 16 29 -36 13 -110 13 -151 1z"/>
<path d="M3180 7079 c0 -5 5 -7 10 -4 6 3 10 8 10 11 0 2 -4 4 -10 4 -5 0 -10&#10;-5 -10 -11z"/>
<path d="M2932 6970 c-18 -11 -37 -32 -43 -46 -12 -32 -2 -47 13 -19 22 38 60&#10;65 94 65 19 0 34 -2 34 -5 0 -2 -20 -13 -43 -23 -50 -22 -86 -66 -94 -117 -5&#10;-31 -3 -35 16 -35 11 0 21 5 21 10 0 6 -4 10 -10 10 -14 0 -13 37 1 46 7 4 16&#10;0 20 -9 23 -41 124 -26 135 19 7 25 19 31 29 14 4 -6 1 -18 -6 -26 -6 -8 -9&#10;-17 -6 -20 9 -10 65 6 78 22 17 21 -21 58 -82 81 -30 10 -48 22 -45 29 11 29&#10;-66 32 -112 4z m118 -74 c0 -26 -23 -56 -44 -56 -17 0 -52 27 -44 35 3 3 15 1&#10;27 -7 16 -10 23 -10 33 0 9 9 9 15 0 24 -18 18 -15 28 8 28 15 0 20 -7 20 -24z"/>
<path d="M2485 6956 c-39 -17 -122 -92 -113 -101 4 -4 24 3 44 16 21 12 65 33&#10;98 45 70 25 89 54 34 54 -18 -1 -46 -7 -63 -14z"/>
<path d="M2612 6876 c5 -24 4 -25 -43 -19 -85 10 -129 -43 -144 -174 -8 -71&#10;-3 -75 60 -49 42 18 45 29 8 24 -18 -2 -28 2 -27 10 4 44 2 43 40 23 46 -25&#10;87 -13 104 30 16 37 45 40 36 4 -7 -28 -4 -30 25 -15 26 15 24 25 -12 60 -27&#10;25 -29 31 -15 36 22 8 55 -21 73 -65 13 -31 12 -79 -4 -134 -4 -15 0 -17 22&#10;-11 19 5 32 1 49 -15 21 -20 24 -20 30 -6 3 9 6 27 6 40 0 19 -6 24 -32 27&#10;-32 3 -33 5 -39 58 -9 81 -81 200 -122 200 -15 0 -18 -5 -15 -24z m-17 -61&#10;l30 -14 -38 5 c-21 4 -50 1 -67 -6 -17 -7 -33 -10 -37 -6 -6 6 53 35 72 35 6&#10;0 24 -6 40 -14z m-7 -68 c8 -41 -38 -60 -74 -31 -18 15 -18 15 2 5 24 -12 67&#10;10 46 23 -18 11 -14 28 5 24 10 -2 19 -11 21 -21z"/>
<path d="M2904 6614 c3 -9 6 -24 6 -35 0 -10 4 -19 9 -19 16 0 23 40 11 55&#10;-16 20 -34 19 -26 -1z"/>
<path d="M2837 6604 c-3 -4 -2 -15 4 -25 11 -21 49 -26 49 -6 0 26 -37 47 -53&#10;31z"/>
<path d="M2734 6564 c-4 -14 -2 -30 5 -37 17 -17 45 15 36 42 -9 29 -33 26&#10;-41 -5z"/>
<path d="M2680 6541 c0 -19 26 -48 36 -39 7 7 -17 58 -28 58 -4 0 -8 -8 -8&#10;-19z"/>
<path d="M2860 6485 c-9 -11 -22 -14 -46 -9 -27 5 -35 3 -40 -12 -19 -59 -28&#10;-73 -50 -78 -13 -4 -24 -13 -24 -21 0 -22 63 -19 112 6 22 11 71 27 108 35 90&#10;18 100 23 100 44 0 27 -19 35 -38 17 -14 -15 -18 -14 -44 8 -34 29 -60 32 -78&#10;10z"/>
<path d="M2905 6364 c-27 -13 -62 -24 -77 -24 -32 0 -36 -15 -9 -30 47 -24&#10;126 3 138 48 3 13 4 24 2 26 -2 2 -26 -7 -54 -20z"/>
<path d="M3036 6183 c-42 -52 -86 -67 -173 -59 -85 8 -96 -5 -30 -34 103 -47&#10;225 -4 243 87 9 44 -8 47 -40 6z"/>
<path d="M3577 4660 c-14 -11 -32 -20 -41 -20 -23 0 -20 -15 8 -33 16 -11 26&#10;-30 31 -59 9 -50 36 -118 48 -118 4 0 5 22 1 49 -6 44 -4 50 15 56 23 7 46 41&#10;34 48 -5 3 -27 10 -50 16 -55 15 -58 35 -3 26 47 -8 80 1 80 21 0 16 -8 20&#10;-61 28 -27 5 -42 1 -62 -14z"/>
<path d="M3285 4591 c-7 -12 26 -31 53 -31 11 0 40 -22 66 -51 l46 -51 0 31&#10;c0 21 5 31 15 31 27 0 15 24 -24 53 -31 21 -50 27 -95 27 -30 0 -57 -4 -61 -9z"/>
<path d="M3413 4392 c-27 -4 -29 -14 -8 -32 12 -10 15 -37 15 -121 0 -123 19&#10;-227 57 -311 35 -79 58 -98 38 -32 -38 123 -56 210 -53 258 l3 51 25 -73 c27&#10;-81 61 -144 67 -125 3 7 -7 54 -20 105 -43 161 -42 208 2 152 25 -32 61 -143&#10;61 -188 0 -55 37 -181 70 -240 28 -49 31 -63 28 -118 -4 -72 16 -93 25 -25 8&#10;55 -14 160 -47 225 -21 42 -26 65 -26 129 0 108 -24 187 -72 235 -21 21 -38&#10;45 -38 53 0 9 -11 20 -25 25 -14 5 -25 14 -25 19 0 10 -44 18 -77 13z"/>
<path d="M3505 3665 c-4 -11 -25 -60 -47 -110 -40 -92 -68 -215 -67 -295 1&#10;-65 14 -26 28 84 11 85 19 108 76 244 14 35 24 71 22 80 -3 15 -5 14 -12 -3z"/>
<path d="M3534 3638 c-3 -13 -24 -65 -46 -116 -29 -68 -44 -122 -54 -199 -13&#10;-93 -13 -126 0 -112 2 2 11 53 20 113 12 82 26 131 56 197 21 48 42 99 46 113&#10;8 32 -12 35 -22 4z"/>
<path d="M3572 3627 c-7 -16 -12 -32 -12 -37 0 -4 -16 -41 -35 -82 -35 -73&#10;-65 -204 -65 -281 0 -59 17 -35 23 35 12 113 25 162 67 256 23 51 40 103 37&#10;115 -3 21 -4 20 -15 -6z"/>
<path d="M3601 3600 c-6 -22 -27 -72 -45 -112 -31 -67 -66 -224 -66 -299 0&#10;-47 17 -2 29 76 6 44 14 95 17 112 3 18 23 71 45 117 42 89 58 146 42 146 -5&#10;0 -15 -18 -22 -40z"/>
<path d="M2145 2493 c-4 -13 -12 -23 -17 -23 -6 0 -8 -17 -3 -46 7 -52 -5 -53&#10;-30 -3 -15 28 -52 43 -42 16 3 -7 -1 -24 -9 -38 -15 -27 -18 -69 -5 -69 5 0&#10;11 9 14 20 12 46 52 13 77 -65 l13 -39 23 53 c24 53 25 53 59 48 41 -7 47 11&#10;15 41 -13 12 -18 25 -14 35 10 28 -13 19 -36 -14 -28 -38 -36 -32 -16 15 12&#10;30 13 36 1 36 -7 0 -16 12 -18 28 -4 26 -4 26 -12 5z"/>
<path d="M2135 2198 c-9 -22 -2 -68 10 -71 14 -3 19 63 6 76 -7 7 -12 5 -16&#10;-5z"/>
<path d="M2460 310 c-6 -12 -9 -24 -7 -27 3 -2 11 5 17 17 6 12 9 24 7 27 -3&#10;2 -11 -5 -17 -17z"/>
<path d="M3365 7725 c-23 -20 -51 -34 -66 -35 -32 0 -41 -18 -29 -59 7 -24 5&#10;-31 -5 -31 -15 0 -35 58 -35 103 0 16 -5 27 -13 27 -27 0 -97 -96 -97 -133 0&#10;-9 21 -19 57 -27 50 -11 65 -20 117 -74 96 -100 126 -113 174 -75 32 25 63 70&#10;56 81 -3 4 -29 8 -57 9 -29 0 -61 4 -71 8 -18 7 -18 8 5 24 13 9 36 17 51 17&#10;49 0 47 40 -3 66 -27 13 -29 19 -29 69 0 29 -4 56 -8 59 -4 2 -26 -11 -47 -29z"/>
</g>
</svg>